<?xml version="1.0" encoding="UTF-8" ?>
<!DOCTYPE svg PUBLIC "-//W3C//DTD SVG 1.1//EN" "http://www.w3.org/Graphics/SVG/1.1/DTD/svg11.dtd">
<svg width="128pt" height="128pt" viewBox="0 0 128 128" version="1.1" xmlns="http://www.w3.org/2000/svg">
<g id="#a2cba8ff">
<path fill="#a2cba8" opacity="1.00" d=" M 63.84 2.05 C 66.47 5.45 70.43 7.19 74.27 8.80 C 76.16 9.51 77.48 11.05 78.45 12.75 C 77.78 13.53 77.11 14.31 76.44 15.10 C 76.64 15.95 76.83 16.81 77.02 17.67 C 74.27 20.91 75.57 25.30 74.68 29.12 C 74.14 34.48 69.44 37.95 65.36 40.81 L 64.76 39.82 L 64.89 41.00 C 63.08 41.73 61.30 42.50 59.48 43.21 L 59.18 43.33 C 57.82 43.89 56.09 43.99 55.31 45.44 C 50.73 51.24 46.64 57.79 40.30 61.85 C 42.83 56.15 46.35 50.88 49.66 45.59 C 54.59 42.12 60.83 40.65 65.13 36.22 C 68.86 33.09 72.13 27.49 68.84 22.89 L 68.39 22.80 C 67.88 22.69 66.87 22.47 66.36 22.37 C 64.62 22.54 62.90 22.77 61.16 22.95 C 64.09 19.30 65.74 14.87 68.01 10.81 C 66.47 10.15 65.02 9.30 63.86 8.08 C 64.26 7.68 65.06 6.90 65.46 6.50 C 64.47 5.19 63.93 3.71 63.84 2.05 M 73.15 12.22 C 71.58 12.62 72.28 15.24 73.84 14.73 C 75.45 14.35 74.73 11.69 73.15 12.22 M 68.06 15.13 C 67.75 17.59 69.85 19.92 72.15 18.06 C 73.73 14.90 70.44 14.03 68.06 15.13 Z" />
<path fill="#a2cba8" opacity="1.00" d=" M 76.18 41.46 C 85.09 42.14 94.63 39.77 102.98 43.91 C 110.58 47.13 116.37 54.57 116.88 62.90 C 117.86 71.16 114.93 80.05 108.23 85.23 C 105.53 87.73 101.96 88.77 98.87 90.64 C 104.12 99.47 109.83 108.03 115.30 116.73 C 115.99 117.77 116.37 118.91 116.44 120.17 C 112.59 120.29 108.72 120.44 104.87 120.27 C 98.15 111.46 93.24 101.29 86.71 92.35 C 83.26 90.73 79.15 93.26 75.70 91.37 C 75.77 88.98 75.79 86.59 75.88 84.20 C 76.67 84.18 78.26 84.15 79.05 84.14 C 82.88 87.97 88.79 87.49 93.11 90.52 C 95.05 92.14 97.52 91.32 99.50 90.27 C 100.54 84.40 93.62 83.95 90.90 80.63 C 91.67 80.53 93.22 80.33 93.99 80.23 C 103.15 78.26 107.45 66.47 102.40 58.83 C 99.25 53.58 92.58 52.61 86.98 52.65 C 84.69 50.00 82.03 47.10 78.23 47.10 C 77.90 48.34 77.60 49.58 77.32 50.82 C 76.95 50.66 76.22 50.32 75.85 50.16 C 75.78 47.26 75.63 44.33 76.18 41.46 M 101.03 49.36 C 112.73 55.70 113.11 73.89 103.18 82.08 C 107.55 79.89 110.79 75.83 112.08 71.13 C 114.54 62.62 110.10 51.52 101.03 49.36 Z" />
<path fill="#a2cba8" opacity="1.00" d=" M 73.23 52.35 C 78.96 53.22 82.72 58.28 85.64 62.84 C 86.61 62.99 87.57 63.13 88.54 63.29 C 92.82 63.75 96.44 67.61 96.73 71.87 C 96.53 73.77 94.27 73.67 92.90 74.21 C 89.15 73.59 86.52 76.91 86.55 80.37 C 88.73 83.54 92.59 84.40 95.63 86.43 C 97.18 86.95 96.60 88.54 96.57 89.76 C 93.40 88.19 90.42 86.12 86.87 85.50 C 83.56 84.88 80.70 82.91 78.78 80.18 C 78.42 80.58 77.70 81.39 77.34 81.79 C 73.27 80.31 69.41 78.22 65.08 77.52 C 64.86 76.19 64.65 74.86 64.44 73.53 C 63.11 76.60 61.10 79.61 57.81 80.79 C 54.24 82.81 50.12 80.42 46.43 81.51 C 43.73 83.94 41.77 88.85 37.28 87.35 C 39.19 84.56 42.10 82.63 43.67 79.57 C 44.74 77.03 47.73 77.70 49.89 77.00 C 51.58 75.82 51.22 73.50 51.53 71.72 C 50.13 70.82 49.05 69.58 48.38 68.06 C 48.73 67.40 49.43 66.08 49.77 65.42 C 50.26 65.36 51.24 65.25 51.73 65.20 C 52.05 65.79 52.69 66.97 53.02 67.56 C 56.63 65.44 60.78 64.03 65.01 64.71 C 70.31 64.93 74.86 68.63 80.20 68.31 C 82.06 68.14 82.82 66.45 83.55 65.01 C 80.07 60.86 73.60 58.59 73.23 52.35 M 90.08 66.53 C 88.51 67.72 90.74 69.68 92.04 68.62 C 93.60 67.46 91.36 65.40 90.08 66.53 Z" />
<path fill="#a2cba8" opacity="1.00" d=" M 33.55 99.66 C 43.41 90.87 60.53 92.33 68.66 102.77 C 64.89 105.67 61.32 108.97 56.89 110.85 C 46.89 115.30 35.35 115.52 24.81 113.02 C 27.49 108.44 29.33 103.11 33.55 99.66 Z" />
</g>
<g id="#638983fe">
<path fill="#638983" opacity="1.00" d=" M 73.15 12.22 C 74.73 11.69 75.45 14.35 73.84 14.73 C 72.28 15.24 71.58 12.62 73.15 12.22 Z" />
<path fill="#638983" opacity="1.00" d=" M 78.45 12.75 C 79.05 14.32 79.54 15.92 79.85 17.57 C 79.15 17.60 77.73 17.64 77.02 17.67 C 76.83 16.81 76.64 15.95 76.44 15.10 C 77.11 14.31 77.78 13.53 78.45 12.75 Z" />
<path fill="#638983" opacity="1.00" d=" M 68.06 15.13 C 70.44 14.03 73.73 14.90 72.15 18.06 C 69.85 19.92 67.75 17.59 68.06 15.13 Z" />
<path fill="#638983" opacity="1.00" d=" M 61.16 22.95 C 62.90 22.77 64.62 22.54 66.36 22.37 C 66.87 22.47 67.88 22.69 68.39 22.80 L 68.84 22.89 C 69.30 27.68 67.16 32.34 63.40 35.30 C 57.14 40.28 49.53 43.08 42.16 45.99 C 48.65 38.44 54.30 30.18 61.16 22.95 Z" />
<path fill="#638983" opacity="1.00" d=" M 16.52 40.44 C 24.39 31.95 37.56 31.21 47.95 34.88 C 45.63 37.99 43.10 40.93 40.89 44.12 C 36.34 43.72 31.19 43.36 27.36 46.33 C 22.37 49.71 21.92 58.46 27.22 61.76 C 32.83 65.35 39.44 66.82 45.44 69.60 C 47.41 70.48 48.46 72.51 49.26 74.40 C 47.49 74.78 45.73 75.24 43.92 75.34 C 35.68 71.48 25.48 69.98 19.74 62.25 C 15.22 55.80 18.04 47.36 22.61 41.77 C 18.19 45.07 14.95 50.35 15.37 56.01 C 15.23 60.86 18.08 65.27 21.81 68.16 C 27.45 72.66 34.64 74.21 41.11 77.08 C 42.19 79.52 39.80 83.00 37.08 81.70 C 28.39 78.26 17.84 75.64 13.04 66.79 C 8.62 58.47 9.68 47.19 16.52 40.44 Z" />
<path fill="#638983" opacity="1.00" d=" M 64.76 39.82 L 65.36 40.81 L 65.76 41.48 C 68.28 41.38 70.80 41.40 73.32 41.63 C 73.17 44.24 73.61 46.97 72.94 49.52 C 72.33 49.59 71.13 49.75 70.53 49.82 C 70.16 54.88 74.38 58.93 73.30 64.09 C 71.46 63.67 69.63 63.23 67.79 62.87 C 67.79 60.88 67.58 58.91 67.27 56.95 C 66.90 53.55 66.61 50.15 66.19 46.76 C 65.28 51.85 65.12 57.04 65.31 62.19 C 63.35 62.26 61.39 62.31 59.43 62.36 C 58.61 56.08 58.92 49.65 59.18 43.33 L 59.48 43.21 C 61.30 42.50 63.08 41.73 64.89 41.00 L 64.76 39.82 Z" />
<path fill="#638983" opacity="1.00" d=" M 79.82 49.34 C 85.17 52.07 86.99 57.94 88.54 63.29 C 87.57 63.13 86.61 62.99 85.64 62.84 C 86.73 57.18 78.53 54.88 79.82 49.34 Z" />
<path fill="#638983" opacity="1.00" d=" M 45.54 86.03 C 46.25 85.07 47.03 84.17 47.88 83.34 C 51.78 83.83 55.72 83.99 59.57 83.03 C 60.82 86.45 61.60 90.04 61.24 93.69 C 57.02 92.44 52.70 91.45 48.27 91.56 C 47.44 89.68 46.53 87.83 45.54 86.03 Z" />
<path fill="#638983" opacity="1.00" d=" M 67.45 83.75 C 68.60 84.39 69.74 85.03 70.87 85.71 C 71.38 85.69 72.39 85.65 72.90 85.64 C 73.68 91.12 73.25 96.71 73.22 102.23 C 70.74 101.28 68.85 99.38 66.84 97.73 C 68.07 93.16 67.26 88.41 67.45 83.75 Z" />
<path fill="#638983" opacity="1.00" d=" M 8.31 103.25 C 10.62 100.38 12.74 97.36 14.99 94.43 C 18.77 97.69 22.96 100.57 27.81 101.99 C 26.06 105.38 24.89 109.95 21.10 111.56 C 16.25 110.00 11.42 107.40 8.31 103.25 Z" />
<path fill="#638983" opacity="1.00" d=" M 71.23 106.93 C 75.51 106.43 76.59 100.94 80.86 100.51 C 83.50 99.85 86.28 100.29 88.50 101.88 C 88.55 103.82 88.94 106.50 86.22 106.61 C 86.44 106.96 86.86 107.67 87.07 108.02 C 84.03 109.89 80.26 110.16 77.42 112.38 C 75.20 114.08 72.85 115.65 70.20 116.61 C 69.36 115.01 68.41 113.48 67.27 112.08 C 68.68 116.54 68.65 121.60 65.65 125.42 C 63.41 125.68 61.15 125.53 58.90 125.49 C 59.68 122.63 61.68 120.21 61.85 117.17 C 60.69 118.23 59.77 119.75 58.14 120.09 C 50.74 121.78 43.03 121.50 35.56 120.42 C 35.19 120.06 34.45 119.33 34.08 118.96 C 31.56 120.35 30.03 122.75 29.31 125.48 C 26.89 125.54 24.47 125.55 22.05 125.48 C 22.69 122.52 24.63 120.13 26.49 117.84 C 25.26 116.92 24.04 116.00 22.84 115.05 C 36.21 118.03 51.28 118.00 62.99 109.99 C 66.29 108.17 68.66 103.70 72.93 104.50 C 72.50 105.11 71.65 106.32 71.23 106.93 M 82.27 102.12 C 81.20 103.52 83.52 105.56 84.54 103.91 C 85.49 102.54 83.31 100.56 82.27 102.12 Z" />
<path fill="#638983" opacity="1.00" d=" M 71.26 117.96 C 73.17 117.23 74.92 115.51 77.05 115.74 C 79.97 118.16 81.70 121.84 82.03 125.59 C 79.95 125.59 77.88 125.54 75.80 125.46 C 74.91 122.62 73.42 120.02 71.26 117.96 Z" />
<path fill="#638983" opacity="1.00" d=" M 35.90 122.17 C 38.63 122.51 42.94 121.62 43.05 125.53 C 40.91 125.53 38.77 125.49 36.63 125.44 C 36.38 124.35 36.13 123.26 35.90 122.17 Z" />
</g>
<g id="#060708f3">
<path fill="#060708" opacity="0.95" d=" M 16.56 33.53 C 25.57 27.60 37.42 27.40 47.17 31.62 C 38.48 30.10 28.85 29.19 20.91 33.88 C 11.25 38.79 5.94 50.62 8.40 61.12 C 9.10 65.00 11.26 68.36 12.94 71.87 C 9.52 68.29 6.77 63.93 5.95 58.98 C 3.94 49.39 8.23 38.76 16.56 33.53 Z" />
<path fill="#060708" opacity="0.95" d=" M 98.87 39.22 C 105.22 40.54 111.53 43.22 115.87 48.19 C 122.15 55.38 123.93 65.94 121.21 74.99 C 119.16 82.75 113.40 89.04 106.47 92.86 C 113.43 103.72 120.60 114.48 127.15 125.59 C 121.06 125.52 114.97 125.65 108.88 125.55 C 107.20 125.93 106.68 124.14 105.82 123.13 C 111.24 122.98 116.66 123.04 122.07 122.75 C 115.65 112.36 108.96 102.14 102.42 91.82 C 105.95 89.59 109.78 87.68 112.55 84.48 C 122.63 73.89 121.92 54.88 110.42 45.56 C 107.14 42.46 102.55 41.65 98.87 39.22 Z" />
<path fill="#060708" opacity="0.95" d=" M 15.37 56.01 C 14.95 50.35 18.19 45.07 22.61 41.77 C 18.04 47.36 15.22 55.80 19.74 62.25 C 25.48 69.98 35.68 71.48 43.92 75.34 C 43.63 75.92 43.04 77.08 42.74 77.66 C 42.34 77.52 41.52 77.23 41.11 77.08 C 34.64 74.21 27.45 72.66 21.81 68.16 C 18.08 65.27 15.23 60.86 15.37 56.01 Z" />
<path fill="#060708" opacity="0.95" d=" M 65.31 62.19 C 65.12 57.04 65.28 51.85 66.19 46.76 C 66.61 50.15 66.90 53.55 67.27 56.95 C 67.26 59.02 67.14 61.09 67.05 63.17 L 65.31 62.19 Z" />
<path fill="#060708" opacity="0.95" d=" M 101.03 49.36 C 110.10 51.52 114.54 62.62 112.08 71.13 C 110.79 75.83 107.55 79.89 103.18 82.08 C 113.11 73.89 112.73 55.70 101.03 49.36 Z" />
<path fill="#060708" opacity="0.95" d=" M 61.53 80.73 C 65.10 78.47 69.34 80.59 72.66 82.34 C 73.04 82.87 73.80 83.91 74.18 84.43 C 73.36 84.75 71.70 85.39 70.87 85.71 C 69.74 85.03 68.60 84.39 67.45 83.75 C 67.26 88.41 68.07 93.16 66.84 97.73 C 65.69 96.91 64.54 96.09 63.40 95.27 C 64.15 90.32 63.30 85.36 61.53 80.73 Z" />
<path fill="#060708" opacity="0.95" d=" M 1.46 103.81 C 4.88 99.68 8.18 95.43 11.84 91.51 L 13.55 91.72 C 11.46 95.87 8.12 99.18 5.61 103.06 C 5.13 104.53 6.91 105.32 7.64 106.33 C 10.64 109.16 14.18 111.37 17.90 113.13 C 19.69 113.87 20.73 115.57 21.85 117.04 C 13.69 115.38 6.68 110.13 1.46 103.81 Z" />
</g>
</svg>
